<?xml version="1.0" encoding="UTF-8"?>
<svg id="Calque_1" data-name="Calque 1" xmlns="http://www.w3.org/2000/svg" xmlns:xlink="http://www.w3.org/1999/xlink" viewBox="0 0 186.2395 61.0104">
  <g id="type">
    <path id="type_CompoundPathItem_" data-name="type &amp;lt;CompoundPathItem&amp;gt;" d="M10.0232,22.1662c-.0993-.3806,.1288-.7697,.5094-.869l7.1505-1.8652c5.4297-1.4157,8.6113,.9145,9.6695,4.9716,1.0577,4.0571-.5722,7.675-6.0019,9.0912l-2.2085,.5757c-.3807,.0992-.6088,.4883-.5096,.869l1.1759,4.5089c.0993,.3806-.1288,.7697-.5094,.869l-3.5635,.9296c-.3807,.0993-.7697-.1288-.869-.5095l-4.8434-18.5713Zm10.2257,6.729c2.1048-.549,2.4749-1.7533,2.1011-3.1867-.3663-1.4032-1.2771-2.2736-3.3819-1.7246l-2.3003,.5998c-.3807,.0993-.6088,.4883-.5095,.869l.9213,3.5328c.0993,.3806,.4883,.6087,.8689,.5095l2.3004-.5998Z" style="fill: #28a5de;"/>
    <path id="type_CompoundPathItem_-2" data-name="type &amp;lt;CompoundPathItem&amp;gt;" d="M30.1498,25.2141c-.9928-5.5225,1.5326-9.4678,7.3031-10.5056,5.8021-1.0434,9.5749,1.7696,10.5677,7.292l1.9941,11.0886c.0696,.3872-.1878,.7575-.575,.8271l-3.6242,.6517c-.3872,.0696-.7575-.1878-.8271-.575l-.7853-4.3684c-.0696-.3872-.4399-.6446-.8271-.575l-6.5405,1.1761c-.3872,.0696-.6446,.4399-.575,.8271l.7853,4.3686c.0696,.3872-.1878,.7574-.575,.8271l-3.5,.6294c-.3872,.0696-.7575-.1878-.8271-.575l-1.9941-11.0886Zm12.4451-.5083c.3871-.0696,.6445-.4398,.575-.827l-.175-.9745c-.5022-2.7921-1.9745-4.033-4.736-3.5363-2.7304,.4911-3.7088,2.1725-3.2066,4.9646l.175,.9742c.0696,.3872,.4399,.6447,.8271,.5751l6.5405-1.1761Z" style="fill: #28a5de;"/>
    <path id="type_CompoundPathItem_-3" data-name="type &amp;lt;CompoundPathItem&amp;gt;" d="M51.3993,13.5711c-.042-.3911,.2411-.7422,.6323-.7842l7.5984-.8149c5.4223-.582,8.1522,2.1058,8.589,6.1805,.3093,2.8839-.6608,5.3657-3.176,6.7453l4.5529,5.6356c.3544,.4387,.0826,1.0957-.4781,1.1558l-4.3059,.4618c-.2552,.0274-.5054-.0847-.6549-.2933l-3.8413-5.3601c-.1495-.2086-.3997-.3207-.6549-.2933l-1.0416,.1117c-.3911,.0419-.6742,.393-.6323,.7842l.5372,5.0093c.0419,.3911-.2411,.7422-.6323,.7842l-3.6613,.3925c-.3911,.0419-.7422-.2411-.7841-.6322l-2.047-19.0828Zm9.2986,7.7663c2.0371-.2189,2.525-1.2854,2.3807-2.6335-.1447-1.3476-.8444-2.2555-2.882-2.0371l-2.5828,.277c-.3911,.0419-.6742,.393-.6323,.7842l.3489,3.2542c.0419,.3911,.393,.6742,.7841,.6323l2.5833-.277Z" style="fill: #28a5de;"/>
    <path id="type_CompoundPathItem_-4" data-name="type &amp;lt;CompoundPathItem&amp;gt;" d="M71.1701,21.1236c-.2272-6.1744,4.1424-10.878,10.5696-11.1145,5.1516-.1898,9.2273,2.5801,10.7349,6.8967,.1605,.4595-.1579,.9475-.6443,.9654l-4.001,.1474c-.2814,.0104-.5314-.1524-.6629-.4013-.971-1.8367-2.8474-2.9714-5.2527-2.8829-3.4969,.1289-5.7042,2.7336-5.5767,6.199,.1275,3.4658,2.5203,5.9013,6.0172,5.7729,2.4052-.0885,4.1932-1.358,5.0266-3.2611,.1129-.2579,.3503-.4386,.6317-.449l4.001-.1471c.4864-.0179,.8398,.4454,.7135,.9154-1.1862,4.4157-5.0474,7.4777-10.1989,7.667-6.4272,.2365-11.1307-4.1331-11.3579-10.3081Z" style="fill: #28a5de;"/>
    <path id="type_CompoundPathItem_-5" data-name="type &amp;lt;CompoundPathItem&amp;gt;" d="M95.2164,20.3265c.2416-6.1749,4.9558-10.5343,11.3825-10.283,6.4267,.2513,10.7861,4.9655,10.5445,11.1404-.2416,6.1744-4.9553,10.5339-11.382,10.2825-6.4272-.2513-10.7861-4.9655-10.545-11.14Zm16.7603,.6552c.1354-3.4654-2.0659-6.0757-5.5628-6.2125s-5.8953,2.2936-6.0307,5.7589c-.1354,3.4658,2.0659,6.0757,5.5628,6.2125,3.4969,.1368,5.8953-2.2936,6.0307-5.7589Z" style="fill: #28a5de;"/>
    <path id="type_CompoundPathItem_-6" data-name="type &amp;lt;CompoundPathItem&amp;gt;" d="M120.0004,23.5211l1.3009-11.5734c.0439-.3909,.3965-.6722,.7874-.6283l3.6598,.4113c.3909,.0439,.6722,.3965,.6283,.7874l-1.3142,11.6916c-.2287,2.0347,1.1742,3.9691,3.2079,4.2066,2.5894,.3024,3.913-.9457,4.1993-3.4934l1.3005-11.5738c.0439-.3909,.3965-.6722,.7874-.6283l3.5346,.3973c.3909,.0439,.6722,.3964,.6283,.7874l-1.3005,11.5739c-.5917,5.2632-4.0701,8.2672-9.6157,7.6435-5.6393-.6334-8.3994-4.3066-7.804-9.6018Z" style="fill: #28a5de;"/>
    <path id="type_CompoundPathItem_-7" data-name="type &amp;lt;CompoundPathItem&amp;gt;" d="M143.4416,14.6262c.0714-.3868,.4429-.6426,.8297-.5712l7.5176,1.3875c5.3653,.99,7.215,4.346,6.4708,8.3776-.5268,2.8528-2.1651,4.9558-4.9706,5.56l2.7565,6.7035c.2145,.5216-.2335,1.0737-.788,.9713l-4.2607-.7864c-.2524-.0466-.4602-.2254-.544-.468l-2.1528-6.236c-.0838-.2426-.2916-.4214-.5439-.468l-1.0307-.1903c-.3869-.0714-.7584,.1843-.8298,.5711l-.9151,4.9567c-.0714,.3868-.4429,.6425-.8298,.5711l-3.6226-.6688c-.3868-.0714-.6425-.4429-.5711-.8297l3.4846-18.8804Zm6.6979,10.1001c2.0158,.3724,2.7884-.5115,3.0346-1.8451,.2458-1.3332-.166-2.4035-2.1818-2.7754l-2.5554-.4717c-.3868-.0714-.7583,.1843-.8297,.5711l-.5946,3.2196c-.0714,.3869,.1843,.7584,.5712,.8298l2.5557,.4717Z" style="fill: #28a5de;"/>
    <path id="type_CompoundPathItem_-8" data-name="type &amp;lt;CompoundPathItem&amp;gt;" d="M159.9819,31.8967l3.4629,.9011c.3249,.0845,.5368,.3865,.5252,.7219-.0342,.9844,.6151,1.7582,2.2397,2.1805,1.9226,.5004,2.8918-.0946,3.2173-1.3457,.3418-1.3123-1.1046-2.0144-2.8486-2.8268-2.703-1.2571-6.1601-2.8737-4.8974-7.7261,.9845-3.7844,4.5519-5.7237,8.8552-4.6038,3.8772,1.0089,6.0331,3.8956,5.6621,7.3592-.0468,.4373-.4688,.737-.8944,.6263l-3.282-.8537c-.3209-.0835-.5308-.3784-.5267-.7099,.0118-.9508-.5669-1.7906-2.0019-2.164-1.77-.4605-2.7341,.364-3.004,1.4014-.3413,1.3123,1.105,2.0149,2.8792,2.8347,2.7341,1.2655,6.1907,2.882,4.9284,7.7344-1.0327,3.9671-4.6743,5.6917-9.1914,4.5162-4.1414-1.0776-6.449-3.9021-6.0174-7.4269,.0531-.4335,.4711-.7288,.8937-.6188Z" style="fill: #28a5de;"/>
    <a xlink:href="22.5321568627451">
      <path id="type_PathItem_" data-name="type &amp;lt;PathItem&amp;gt;" d="M17.2559,50.4987l-.9238-3.1927c-.11-.3801,.1075-.7788,.4879-.8875,23.3292-6.6701,49.9053-10.1938,76.9101-10.1938,26.9905,.0005,53.5494,3.5196,76.8647,10.1805,.3804,.1087,.598,.5074,.4881,.8874l-.9232,3.1935c-.1086,.3757-.4966,.5918-.8727,.4843-22.896-6.541-49.0027-9.9968-75.5527-9.9972-26.5727,0-52.6962,3.4599-75.6057,10.0096-.376,.1075-.7641-.1084-.8728-.4841Z" style="fill: #fcbb6d;"/>
    </a>
  </g>
</svg>